<?xml version="1.0" encoding="UTF-8"?>
<svg version="1.1" xmlns="http://www.w3.org/2000/svg" width="1024" height="1024">
<path d="M0 0 C11.03952951 0.61107908 22.07206129 0.54042197 33.12532616 0.51329803 C35.41697216 0.51142586 37.70861857 0.51000576 40.00026512 0.50901031 C45.950045 0.50524448 51.89979934 0.49546932 57.84956932 0.48430634 C63.94148477 0.47397551 70.03340442 0.46948457 76.12532616 0.46446991 C87.51875987 0.45430478 98.91217705 0.43858778 110.30559731 0.4184351 C111.94863046 0.41605601 113.59166628 0.41564178 115.23470116 0.41564178 C117.20529306 0.40841888 119.17588476 0.40113005 121.14647484 0.39342499 C130.78699993 0.35589215 140.42751719 0.33008232 150.06809807 0.31201744 C155.3974303 0.30168002 160.72669615 0.28770102 166.05599022 0.26476288 C249.61936688 -0.08501941 249.61936688 -0.08501941 287.04720116 19.81407928 C289.98720242 21.45661013 289.98720242 21.45661013 292.42220116 21.89220428 C295.08244338 22.66046389 296.34219472 24.433358 298.23470116 26.41564178 C299.86058799 27.60994931 301.50839814 28.77474828 303.17220116 29.91564178 C334.68457949 52.57434258 355.32456535 86.68056942 361.82747614 124.87013876 C365.10906125 145.38283944 364.5299442 166.23724096 364.51080954 186.94157898 C364.50831732 192.00443894 364.51738704 197.06728131 364.52484703 202.13013458 C364.53752701 212.02025302 364.53939618 221.91034423 364.53704677 231.80046944 C364.53525606 239.84750166 364.53702929 247.89452568 364.54127121 255.94155693 C364.5418664 257.09145908 364.54246159 258.24136123 364.54307481 259.42610889 C364.54428669 261.76291786 364.54550083 264.09972683 364.54671719 266.4365358 C364.55756671 288.29817069 364.55544241 310.15979012 364.54933234 332.02142587 C364.54416436 351.97179128 364.55542015 371.92210786 364.57443056 391.87246362 C364.59385419 412.41578087 364.60205712 432.95907505 364.59830731 453.50240153 C364.59640227 465.01259418 364.59881457 476.52274527 364.61302185 488.03293037 C364.62499442 497.83076577 364.62627509 507.628534 364.61423168 517.42637042 C364.60838424 522.41384535 364.60712745 527.40119781 364.61923409 532.38866425 C364.72234529 578.00877182 361.57998114 623.69064115 331.23470116 660.41564178 C330.49864647 661.35150116 329.76259178 662.28736053 329.00423241 663.25157928 C322.71654383 671.24576258 322.71654383 671.24576258 320.23470116 673.41564178 C319.57470116 673.41564178 318.91470116 673.41564178 318.23470116 673.41564178 C318.03747459 673.96607147 317.84024803 674.51650116 317.63704491 675.08361053 C315.65160289 678.3853066 312.81699532 680.42671804 309.79720116 682.72814178 C309.1653994 683.21452118 308.53359764 683.70090057 307.88265038 684.20201874 C277.59416271 707.25692088 242.42146854 716.11689733 204.82649803 717.12535858 C203.86292381 717.15154266 202.89934959 717.17772675 201.90657616 717.20470428 C200.6241201 717.2310495 200.6241201 717.2310495 199.31575584 717.25792694 C197.17420375 717.28824734 197.17420375 717.28824734 195.23470116 718.41564178 C195.23470116 717.75564178 195.23470116 717.09564178 195.23470116 716.41564178 C194.24083397 716.58064178 193.24696678 716.74564178 192.22298241 716.91564178 C188.27266027 717.48068408 184.41363888 717.47931377 180.42220116 717.41564178 C175.66070952 717.13346474 175.66070952 717.13346474 171.23470116 718.41564178 C171.23470116 717.75564178 171.23470116 717.09564178 171.23470116 716.41564178 C170.10654488 716.43039047 168.9783886 716.44513916 167.81604576 716.46033478 C157.15033418 716.59902622 146.48456226 716.73170812 135.81870365 716.85860538 C130.3361515 716.92402465 124.85364154 716.99151278 119.37117577 717.06383514 C114.07386771 717.1336371 108.77651796 717.19786587 103.47909546 717.25833702 C101.46462453 717.28229164 99.45017587 717.30820679 97.43575668 717.33617592 C77.1683882 717.61511113 77.1683882 717.61511113 68.23470116 716.41564178 C67.90470116 717.07564178 67.57470116 717.73564178 67.23470116 718.41564178 C67.23470116 717.75564178 67.23470116 717.09564178 67.23470116 716.41564178 C66.24470116 716.74564178 65.25470116 717.07564178 64.23470116 717.41564178 C61.90582201 717.50608244 59.57435021 717.53319428 57.2437191 717.52916718 C56.17005839 717.52939046 56.17005839 717.52939046 55.07470757 717.52961826 C52.67024538 717.52892239 50.26585909 717.52107388 47.86141014 717.51329803 C46.1400971 717.51137942 44.4187835 717.50991536 42.69746971 717.50887299 C38.98808767 717.50570885 35.27872832 717.49943563 31.56935501 717.49080658 C25.7087057 717.47731072 19.848064 717.47139579 13.98740196 717.46666718 C1.54899159 717.45555676 -10.88940072 717.43601752 -23.32779884 717.41564178 C-36.75798547 717.39364581 -50.18816471 717.37306312 -63.61836571 717.36222363 C-69.44927014 717.35722824 -75.28014015 717.34734941 -81.1110307 717.33379364 C-84.73192354 717.32635674 -88.35281157 717.32302296 -91.97371101 717.32082748 C-93.65799875 717.31894866 -95.34228555 717.31533431 -97.02656555 717.30989456 C-99.31816635 717.30272394 -101.60969039 717.30163877 -103.90130043 717.30211639 C-105.18607057 717.29989578 -106.4708407 717.29767517 -107.79454327 717.29538727 C-110.69445511 717.20910685 -110.69445511 717.20910685 -112.76529884 718.41564178 C-112.76529884 717.75564178 -112.76529884 717.09564178 -112.76529884 716.41564178 C-115.72397803 716.55610433 -118.68212149 716.70276403 -121.64029884 716.85314178 C-122.48205666 716.89245819 -123.32381447 716.9317746 -124.19108009 716.97228241 C-124.99674416 717.01417694 -125.80240822 717.05607147 -126.63248634 717.09923553 C-127.74792824 717.15422211 -127.74792824 717.15422211 -128.88590431 717.21031952 C-130.85394196 717.31520044 -130.85394196 717.31520044 -132.76529884 718.41564178 C-132.76529884 717.75564178 -132.76529884 717.09564178 -132.76529884 716.41564178 C-133.42529884 716.41564178 -134.08529884 716.41564178 -134.76529884 716.41564178 C-135.09529884 717.07564178 -135.42529884 717.73564178 -135.76529884 718.41564178 C-135.76529884 717.75564178 -135.76529884 717.09564178 -135.76529884 716.41564178 C-138.07529884 716.74564178 -140.38529884 717.07564178 -142.76529884 717.41564178 C-142.76529884 717.74564178 -142.76529884 718.07564178 -142.76529884 718.41564178 C-148.29002704 718.54120379 -148.29002704 718.54120379 -150.65787697 717.91564178 C-153.09257428 717.33799349 -155.23162622 717.31985013 -157.73404884 717.35314178 C-158.758209 717.36176239 -159.78236916 717.370383 -160.83756447 717.37926483 C-162.53429298 717.39727142 -162.53429298 717.39727142 -164.26529884 717.41564178 C-176.30988737 717.46504468 -188.34982263 717.3747232 -200.39249611 717.15319061 C-202.27702092 717.12035917 -204.16163424 717.09220415 -206.0463047 717.06920624 C-222.56084837 716.86116991 -238.85975671 715.33960478 -254.89029884 711.16564178 C-255.70393898 710.95657196 -256.51757912 710.74750214 -257.35587502 710.53209686 C-294.52940148 700.58485979 -325.45963106 677.56456608 -344.98600197 644.33849335 C-352.73514356 630.7743455 -358.12147112 617.23019519 -361.51529884 601.97814178 C-361.81355568 600.63985321 -361.81355568 600.63985321 -362.11783791 599.2745285 C-365.72197651 581.99259118 -366.06959126 564.97406491 -366.0841465 547.39220428 C-366.09346643 544.79474839 -366.1036381 542.19729543 -366.11458778 539.59984589 C-366.13965112 533.28837756 -366.15448023 526.97692544 -366.16590287 520.66541934 C-366.17989144 513.19586259 -366.20489311 505.7263533 -366.23028617 498.25682807 C-366.27574962 484.79025114 -366.31229613 471.32366514 -366.34342384 457.85704803 C-366.37300072 445.06796641 -366.4072446 432.27891185 -366.44791603 419.48986053 C-366.45037579 418.71485258 -366.45283556 417.93984462 -366.45536986 417.14135158 C-366.46529514 414.01720935 -366.47524398 410.89306719 -366.48522289 407.76892513 C-366.60206623 371.14329512 -366.68906153 334.51763918 -366.75377871 297.89188117 C-366.76135898 293.60331947 -366.76916895 289.3147583 -366.77720404 285.02619743 C-366.80818695 268.46450904 -366.83227103 251.90283261 -366.84486961 235.34111786 C-366.84855813 230.61312566 -366.85438995 225.88514481 -366.8623333 221.1571579 C-366.89656867 199.78028857 -366.87497209 178.41192317 -366.33805275 157.04064178 C-366.31963223 156.26398855 -366.30121171 155.48733532 -366.282233 154.68714714 C-365.22104885 111.51956748 -351.44327506 72.36961363 -320.76529884 41.41564178 C-319.98928322 40.62673553 -319.21326759 39.83782928 -318.41373634 39.02501678 C-279.58103102 1.92710586 -226.70846718 0.02561777 -176.19996214 0.24578547 C-171.80729454 0.26238121 -167.4146145 0.26617003 -163.02192116 0.27124786 C-154.7110195 0.28252253 -146.4001739 0.30315748 -138.08930314 0.32814556 C-123.26772161 0.3726661 -108.44612329 0.40605889 -93.62449181 0.42838961 C-88.45823666 0.43660559 -83.29204132 0.45055458 -78.12581408 0.46925575 C-74.09923469 0.48296329 -70.07265885 0.49173475 -66.04606056 0.49742889 C-65.27089206 0.49857724 -64.49572357 0.49972559 -63.69706511 0.50090873 C-51.86930456 0.50911405 -40.07141654 0.2077406 -28.25250363 -0.22465229 C-18.79054905 -0.56270603 -9.45120899 -0.52408654 0 0 Z M-137.51481056 239.83263397 C-149.16562872 244.76404763 -160.86394021 249.57356772 -172.57779884 254.35314178 C-176.35390683 255.89464602 -180.12992346 257.43637399 -183.90592384 258.97814178 C-184.82830849 259.35468399 -185.75069313 259.7312262 -186.70102882 260.11917877 C-196.79487723 264.24138726 -206.87619571 268.39391161 -216.95304298 272.55748749 C-223.50730315 275.26368132 -230.06923642 277.94747307 -236.65201759 280.58361053 C-237.90913667 281.08880322 -239.1662176 281.59409083 -240.42325783 282.09947968 C-242.73683128 283.02770805 -245.05259541 283.95050411 -247.37101173 284.86656952 C-258.09871423 289.02821915 -258.09871423 289.02821915 -264.92983258 297.9567163 C-266.5651955 302.76987961 -266.30891987 307.69272855 -266.26650429 312.72646332 C-266.27203868 313.95413103 -266.27757308 315.18179874 -266.28327519 316.44666851 C-266.2945008 319.83780573 -266.28787965 323.22804163 -266.27353847 326.61910939 C-266.26240386 330.28239892 -266.27437938 333.94562431 -266.28338051 337.60890961 C-266.29729726 344.77812782 -266.28976881 351.94716962 -266.27470493 359.1163794 C-266.25782813 367.46675432 -266.26105712 375.81708551 -266.26479901 384.16747223 C-266.27067453 399.066149 -266.25651712 413.9647412 -266.23185158 428.86339569 C-266.20792307 443.31850605 -266.20085107 457.77350345 -266.21134377 472.22863007 C-266.22275303 487.97463331 -266.2246836 503.72058434 -266.21024567 519.46658695 C-266.20871984 521.14548611 -266.20719949 522.82438528 -266.20568466 524.50328445 C-266.20492685 525.32931336 -266.20416903 526.15534227 -266.20338826 527.00640235 C-266.19864617 532.82661169 -266.20049627 538.6467977 -266.20475006 544.46700668 C-266.20967658 551.55860702 -266.20369277 558.65010058 -266.18385576 565.74167646 C-266.17398457 569.35965274 -266.16887676 572.97746641 -266.17674828 576.59545135 C-266.18510502 580.5166668 -266.17022422 584.43759655 -266.1529789 588.35878754 C-266.15898894 589.50313802 -266.16499899 590.6474885 -266.17119116 591.82651627 C-266.12637854 597.41237063 -266.02810728 601.64690435 -262.76529884 606.41564178 C-258.08873647 610.63595417 -255.30220024 611.69562891 -249.15201759 611.64611053 C-245.55668643 611.29893453 -242.98769351 610.02683912 -239.76529884 608.41564178 C-238.77529884 608.08564178 -237.78529884 607.75564178 -236.76529884 607.41564178 C-235.29146652 606.8334886 -233.8219102 606.24047007 -232.35514259 605.64073944 C-231.46061882 605.27554703 -230.56609505 604.91035461 -229.64446449 604.53409576 C-228.67371483 604.13664658 -227.70296516 603.73919739 -226.70279884 603.32970428 C-225.69140343 602.91650436 -224.68000801 602.50330444 -223.63796425 602.07758331 C-221.47018459 601.19181954 -219.30258296 600.30561995 -217.13514137 599.41902924 C-213.76557433 598.04075447 -210.39551576 596.66368841 -207.02530861 595.28697968 C-199.76130631 592.31948793 -192.49790388 589.3505297 -185.23472023 586.38103485 C-181.84349894 584.99458909 -178.45216738 583.60841757 -175.06022072 582.22374725 C-172.90095529 581.34226702 -170.74206936 580.45985631 -168.58365822 579.57628632 C-163.96520607 577.69144573 -159.33593544 575.86501325 -154.65812111 574.13317108 C-151.32735551 572.87054757 -148.05062299 571.47869171 -144.76529884 570.10314178 C-138.44479389 567.47713406 -132.09001796 564.98386271 -125.66373634 562.62877655 C-122.31131926 561.39448509 -118.9971947 560.10979954 -115.71061134 558.70861053 C-115.04819435 558.42960907 -114.38577736 558.1506076 -113.70328712 557.86315155 C-111.88603879 557.09188553 -110.07540546 556.30508551 -108.26529884 555.51720428 C-99.41283128 552.7310482 -93.50177816 555.35470643 -85.32779884 558.91564178 C-82.91378579 559.933357 -80.49861837 560.94784694 -78.08170509 561.95861053 C-77.43190681 562.23178604 -76.78210854 562.50496155 -76.1126194 562.7864151 C-68.26392847 566.07242058 -60.32869901 569.13515487 -52.39515114 572.20909882 C-38.65366204 577.53379628 -24.93868481 582.91845303 -11.26529884 588.41564178 C3.34473172 594.28845245 18.0020111 600.03525238 32.68001366 605.73595428 C33.48681572 606.04970001 34.29361778 606.36344574 35.12486839 606.68669891 C36.72923566 607.31020899 38.33411043 607.93241487 39.93950462 608.55327606 C44.17692782 610.19816068 48.39115756 611.88631152 52.58675194 613.63536835 C53.4745182 614.00183472 54.36228447 614.36830109 55.27695274 614.7458725 C56.96471884 615.44462008 58.64877292 616.15243608 60.32806969 616.87129974 C66.46644979 619.40156816 72.62240049 621.2235946 79.23860741 619.74376678 C80.08294334 619.38798553 80.92727928 619.03220428 81.79720116 618.66564178 C82.64411522 618.32017303 83.49102928 617.97470428 84.36360741 617.61876678 C85.78479881 617.02321991 85.78479881 617.02321991 87.23470116 616.41564178 C88.51296196 615.93328242 89.79305585 615.45576421 91.07454491 614.98204803 C95.17216986 613.45683437 99.20218436 611.79154941 103.23470116 610.10314178 C112.45597224 606.27207238 121.75881185 602.57427155 131.23470116 599.41564178 C132.49807539 598.93175769 133.75820117 598.43935283 135.01595116 597.94103241 C135.76683006 597.64402435 136.51770897 597.3470163 137.29134178 597.041008 C138.09765038 596.72119965 138.90395897 596.4013913 139.73470116 596.07189178 C140.566791 595.74273773 141.39888084 595.41358368 142.25618553 595.07445526 C144.91599322 594.02227983 147.5753951 592.96908437 150.23470116 591.91564178 C153.73434139 590.52931392 157.2343911 589.14402741 160.73470116 587.75939178 C161.54100975 587.43958344 162.34731834 587.11977509 163.17806053 586.79027557 C163.92893944 586.49326752 164.67981834 586.19625946 165.45345116 585.89025116 C166.11280663 585.62901459 166.77216209 585.36777802 167.45149803 585.09862518 C169.02990135 584.49408202 170.63122165 583.95013495 172.23470116 583.41564178 C175.95234317 582.02348247 179.65463323 580.59087935 183.35970116 579.16564178 C184.48883934 578.73179169 185.61797752 578.29794159 186.78133202 577.85094452 C193.52621804 575.25206032 200.25901515 572.62450764 206.98079491 569.96642303 C207.71439232 569.67647461 208.44798973 569.38652618 209.20381737 569.08779144 C212.81275112 567.66070894 216.42035341 566.23037651 220.02620506 564.7955246 C226.07011498 562.39712396 232.10373779 560.0393492 238.29598045 558.04479218 C252.6642043 553.63389864 252.6642043 553.63389864 263.34016991 543.67345428 C265.87421608 537.27747748 265.37636266 530.11194692 265.3616848 523.35103607 C265.36324479 522.24506219 265.36480478 521.1390883 265.36641204 519.99960005 C265.37039703 516.29760948 265.36724192 512.59566 265.36409569 508.89366913 C265.36545094 506.2370873 265.36719554 503.58050829 265.36940575 500.92392731 C265.37384999 494.4561265 265.37289234 487.98833731 265.36999311 481.52053605 C265.36773107 476.2548638 265.36743003 470.98919479 265.36851692 465.72352219 C265.36867016 464.97286018 265.36882339 464.22219817 265.36898126 463.44878883 C265.36930101 461.92345892 265.36962523 460.39812902 265.36995386 458.87279911 C265.37280541 444.56772372 265.36952812 430.26265474 265.36415349 415.9575804 C265.35969852 403.72289451 265.36045119 391.48821812 265.36507225 379.25353241 C265.37044585 365.01995488 265.37251734 350.78638299 265.36945999 336.55280459 C265.36914148 335.02893043 265.3688271 333.50505626 265.36851692 331.9811821 C265.36836265 331.23159986 265.36820837 330.48201763 265.36804942 329.70972078 C265.36719164 324.46664682 265.36863139 319.22357648 265.37099648 313.98050308 C265.37382627 307.56640597 265.37299064 301.15232107 265.36771573 294.73822533 C265.36511908 291.47488784 265.36455805 288.21157436 265.36736488 284.94823647 C265.37348459 277.1030495 265.33108606 269.26022219 265.23470116 261.41564178 C265.22297379 259.88480603 265.22297379 259.88480603 265.2110095 258.3230443 C265.18055814 255.4290108 265.115747 252.53793374 265.039114 249.64479828 C265.0338939 248.80649015 265.0286738 247.96818202 265.02329552 247.10447061 C264.81405332 241.33975372 263.27842856 237.58933797 259.23470116 233.41564178 C254.72683599 230.41039834 250.52198357 230.90925356 245.23470116 231.41564178 C241.67301208 232.27623043 238.35871975 233.55024801 234.96907616 234.93126678 C234.02523567 235.29834747 233.08139519 235.66542816 232.10895348 236.04363251 C229.06046588 237.23379045 226.0228673 238.44940779 222.98470116 239.66564178 C220.86731885 240.49750483 218.74922923 241.32756965 216.63045311 242.15587616 C212.42465554 243.80284433 208.22275276 245.45914633 204.02425194 247.12462616 C197.12726748 249.85876922 190.2077148 252.53267953 183.28389549 255.19792938 C180.23815222 256.37211124 177.19560764 257.55452479 174.15266991 258.73595428 C168.31213045 261.00110647 162.46570153 263.25055225 156.61604881 265.4920578 C154.4072396 266.34033623 152.19981498 267.19223126 149.9939785 268.04821014 C145.52761352 269.78121055 141.06614665 271.49417472 136.53548241 273.05236053 C135.84776756 273.2987326 135.16005272 273.54510468 134.45149803 273.79894257 C132.73631126 274.41069251 131.01139032 274.99498351 129.28548241 275.57579803 C121.22403194 280.43744102 116.34782967 290.5856328 111.29720116 298.29064178 C106.13553971 306.15078579 100.83229756 313.85837413 95.23470116 321.41564178 C98.71128164 322.57450195 99.2779648 322.26903714 102.5474453 320.94029999 C103.41587563 320.59276169 104.28430595 320.24522339 105.17905235 319.88715363 C106.11651802 319.50081253 107.05398369 319.11447144 108.01985741 318.71642303 C108.99071785 318.32496597 109.96157829 317.93350891 110.96185875 317.53018951 C114.07730408 316.27167846 117.18724375 315.00014584 120.29720116 313.72814178 C122.36651028 312.88938139 124.43616803 312.05148054 126.50618553 311.21446991 C130.3450551 309.66097313 134.18173994 308.10231481 138.0161953 306.53795624 C143.07995073 304.47426924 148.15561971 302.44126098 153.23470116 300.41564178 C154.47825724 299.91841223 155.72175301 299.42103179 156.96516991 298.92345428 C182.38834699 288.75418345 207.81152407 278.58491262 233.23470116 268.41564178 C234.93491308 271.81606564 234.36326358 275.69598679 234.34822655 279.43634796 C234.34837541 280.38287473 234.34852427 281.32940151 234.34867764 282.30461091 C234.3479796 285.49699819 234.34012086 288.68932889 234.33235741 291.88170624 C234.33043931 294.16316953 234.328975 296.44463325 234.32793236 298.72609711 C234.32476298 303.65283034 234.31848116 308.57954658 234.30986595 313.50627327 C234.2963597 321.31274667 234.29045159 329.11921436 234.28572655 336.92569733 C234.27838188 347.88906499 234.26826679 358.85242591 234.25520897 369.81578827 C234.25396725 370.86002069 234.25396725 370.86002069 234.25270045 371.92534872 C234.24596768 377.56295568 234.23905378 383.20056241 234.23209763 388.8381691 C234.22605253 393.73826081 234.22006876 398.6383526 234.21419334 403.53844452 C234.21336522 404.22798957 234.21253709 404.91753461 234.21168387 405.62797496 C234.19792842 417.18477452 234.18824612 428.74157401 234.181283 440.2983796 C234.17633037 448.03993423 234.16651321 455.78146214 234.15285301 463.52300608 C234.14532439 468.37287955 234.14206384 473.22274949 234.13988686 478.07262802 C234.13803476 480.30042806 234.13447471 482.52822753 234.12895393 484.7560215 C234.09558789 498.67491908 234.43733798 512.51878367 235.23470116 526.41564178 C234.20175895 526.72313524 234.20175895 526.72313524 233.14794922 527.03684068 C232.24568289 527.30628173 231.34341656 527.57572278 230.41380882 527.8533287 C229.51893068 528.12019934 228.62405254 528.38706997 227.70205688 528.6620276 C225.11847206 529.4511421 222.59159592 530.32694666 220.07063866 531.29747772 C219.18851707 531.63503082 218.30639549 531.97258392 217.39754295 532.32036591 C216.47755516 532.6766507 215.55756737 533.03293549 214.60970116 533.40001678 C213.62332664 533.77869904 212.63695213 534.15738129 211.62068748 534.54753876 C208.4906996 535.75015921 205.36269177 536.95783739 202.23470116 538.16564178 C200.16842086 538.96024023 198.10201549 539.75451351 196.03548241 540.54845428 C187.07358044 543.99412862 178.1183877 547.45671942 169.17220116 550.94298553 C158.54409406 555.08422379 147.88868171 559.15404111 137.23470116 563.22814178 C133.08224121 564.81637986 128.92989188 566.40490665 124.77766991 567.99376678 C123.77278023 568.37827499 122.76789055 568.7627832 121.73254967 569.15894318 C115.99652484 571.35487533 110.26362696 573.55861263 104.53548241 575.77501678 C103.32440819 576.24318817 102.11333397 576.71135956 100.86556053 577.19371796 C98.72415058 578.02258477 96.58346976 578.85333897 94.44368553 579.68639374 C93.5252285 580.04177216 92.60677147 580.39715057 91.66048241 580.76329803 C90.89131493 581.0624411 90.12214745 581.36158417 89.32967186 581.66979218 C87.31346568 582.38760011 85.312726 582.91156922 83.23470116 583.41564178 C83.23562295 582.50866798 83.23654474 581.60169418 83.23749447 580.66723633 C83.25986126 558.29914579 83.2762611 535.93105725 83.28651333 513.56295776 C83.29160665 502.74464253 83.29853813 491.92633496 83.31014061 481.1080246 C83.32330288 468.59598091 83.33156418 456.0839427 83.33235741 443.57189178 C83.33245394 442.04914328 83.33245394 442.04914328 83.33255243 440.49563217 C83.33131443 407.45883402 83.06564091 374.44322814 82.23470116 341.41564178 C79.79894878 344.4499806 77.40634101 347.49815744 75.09798241 350.63048553 C74.51983788 351.39941132 73.94169334 352.1683371 73.34602928 352.96056366 C72.1557134 354.54377425 70.97581211 356.13487382 69.80696678 357.73400116 C69.22237694 358.504216 68.63778709 359.27443085 68.03548241 360.06798553 C67.5215493 360.75884247 67.0076162 361.4496994 66.47810936 362.16149139 C64.23470116 364.41564178 64.23470116 364.41564178 62.02947044 365.42366791 C59.15748673 366.82153986 57.34345606 367.9961045 55.23470116 370.41564178 C53.86825997 376.06583028 54.07116168 381.64787879 54.17220116 387.43126678 C54.16975093 389.17193855 54.16322825 390.91260871 54.15291405 392.65325165 C54.1390565 396.34893659 54.15245639 400.04310114 54.18782616 403.73863983 C54.24022483 409.29355403 54.22859396 414.84693796 54.20345116 420.40196991 C54.16786597 429.97325076 54.18591761 439.5438358 54.21639061 449.11510468 C54.24955153 459.55380114 54.26089595 469.99252258 54.26595116 480.43126678 C54.26650002 481.4792746 54.26704887 482.52728241 54.26761436 483.60704803 C54.27380344 505.37917469 54.05614193 527.14610561 53.73470116 548.91564178 C53.71666435 550.14153267 53.71666435 550.14153267 53.69826317 551.39218903 C53.55511903 561.06686829 53.4015457 570.74134057 53.23470116 580.41564178 C52.37063652 580.04066055 51.50657188 579.66567932 50.61632347 579.27933502 C42.6632584 575.84652038 34.67180121 572.5546883 26.60188866 569.40392303 C25.44512627 568.95018814 24.28836388 568.49645325 23.09654808 568.02896881 C19.43507156 566.59329326 15.77242501 565.16063168 12.10970116 563.72814178 C9.71248524 562.78889409 7.31534935 561.84944212 4.91829491 560.90978241 C0.12926846 559.03271843 -4.6601563 557.15667616 -9.44986916 555.28136444 C-17.05420444 552.30334864 -24.65622706 549.31946661 -32.25748634 546.33361053 C-33.43932503 545.86949265 -34.62116371 545.40537476 -35.83881569 544.92719269 C-36.93716743 544.49565384 -38.03551918 544.06411499 -39.16715431 543.61949921 C-40.13023506 543.24113419 -41.09331581 542.86276917 -42.08558083 542.47293854 C-43.85495853 541.77482131 -45.62267729 541.07248295 -47.38860512 540.36568451 C-53.05034424 538.102501 -58.75571516 535.94755035 -64.44913673 533.7654953 C-66.03707116 533.15643126 -67.62463584 532.54640238 -69.21183205 531.93541718 C-71.51135597 531.05028957 -73.81202089 530.16818951 -76.11295509 529.28673553 C-76.82033318 529.0138118 -77.52771126 528.74088806 -78.25652504 528.45969391 C-81.40239325 527.25802133 -84.48917546 526.18856255 -87.76529884 525.41564178 C-87.76014511 524.25885894 -87.75499138 523.10207609 -87.74968147 521.91023922 C-87.62672803 494.30574445 -87.50449346 466.70124658 -87.38311657 439.09674483 C-87.36810048 435.68180356 -87.35307845 432.26686231 -87.33805275 428.85192108 C-87.33356683 427.83235642 -87.33356683 427.83235642 -87.32899028 426.79219449 C-87.2808712 415.8588395 -87.23227428 404.92548668 -87.18349344 393.99213462 C-87.13326289 382.73141358 -87.08357292 371.47069023 -87.0343318 360.20996481 C-87.00673504 353.90275353 -86.97890985 347.59554346 -86.95049477 341.2883358 C-86.83520298 315.66402736 -86.72080574 290.04026147 -86.76529884 264.41564178 C-85.34881702 264.88098601 -83.93292768 265.34813393 -82.51728249 265.81601715 C-81.72874445 266.07596183 -80.94020641 266.33590651 -80.12777328 266.60372829 C-76.5861779 267.82087123 -73.14490143 269.2474914 -69.69498634 270.70079803 C-68.20671371 271.31995937 -66.7184322 271.93909937 -65.23014259 272.55821991 C-62.92807977 273.52040447 -60.62656928 274.48389453 -58.32535744 275.44811249 C-56.07490277 276.38974632 -53.82253178 277.32667903 -51.56998634 278.26329803 C-50.89064034 278.54979721 -50.21129433 278.83629639 -49.51136208 279.13147736 C-45.31778268 280.87334839 -41.15405663 282.24570951 -36.76529884 283.41564178 C-36.76529884 279.22073039 -37.12409663 278.35509103 -39.26529884 274.97814178 C-39.81443947 274.09900116 -40.36358009 273.21986053 -40.92936134 272.31407928 C-41.53522072 271.35759491 -42.14108009 270.40111053 -42.76529884 269.41564178 C-44.058994 267.31272168 -45.35057563 265.20850023 -46.64029884 263.10314178 C-47.58748839 261.56754662 -48.53755566 260.03349538 -49.513834 258.51622772 C-50.76529884 256.41564178 -50.76529884 256.41564178 -52.24723244 253.36974335 C-57.63668937 243.11015302 -64.06488895 239.86365241 -74.64029884 235.79064178 C-76.06238846 235.20446417 -77.48297808 234.61463384 -78.90201759 234.02111053 C-102.7837169 224.1567644 -114.32554715 230.0125857 -137.51481056 239.83263397 Z M-35.76529884 282.41564178 C-35.76529884 283.07564178 -35.76529884 283.73564178 -35.76529884 284.41564178 C-35.10529884 284.08564178 -34.44529884 283.75564178 -33.76529884 283.41564178 C-34.42529884 283.08564178 -35.08529884 282.75564178 -35.76529884 282.41564178 Z " fill="#F04B39" transform="translate(512.7652988433838,153.58435821533203)"/>
<path d="M0 0 C3.58655828 3.05831371 6.94292079 6.32199167 10.29492188 9.63330078 C10.94847656 10.21466797 11.60203125 10.79603516 12.27539062 11.39501953 C24.80700463 22.77957504 32.39203356 40.59017812 36.29492188 56.63330078 C36.63523437 57.89980469 36.63523437 57.89980469 36.98242188 59.19189453 C41.97992764 80.88245775 37.63129875 104.77905951 28.29492188 124.63330078 C27.83811035 125.60710693 27.83811035 125.60710693 27.37207031 126.60058594 C20.57424535 140.91197838 12.65353795 154.4409439 3.79492188 167.57080078 C3.00937512 168.74119409 2.22397778 169.9116877 1.4387207 171.08227539 C-10.27141545 188.50386685 -22.3166403 205.68760948 -34.70507812 222.63330078 C-35.3119043 223.46474609 -35.91873047 224.29619141 -36.54394531 225.15283203 C-38.42796786 227.73188393 -40.3156929 230.30817549 -42.20507812 232.88330078 C-42.78080566 233.66995117 -43.3565332 234.45660156 -43.94970703 235.26708984 C-54.30039418 249.32553121 -54.30039418 249.32553121 -61.70507812 251.63330078 C-67.31719144 251.83021704 -69.90422438 249.96768817 -73.8918457 246.43505859 C-76.9435288 243.40268734 -79.32967586 239.97737041 -81.76757812 236.44580078 C-82.90193632 234.83828251 -84.03739002 233.23153684 -85.17382812 231.62548828 C-85.75390625 230.80145508 -86.33398438 229.97742188 -86.93164062 229.12841797 C-89.81890912 225.06620927 -92.79684259 221.07212432 -95.76757812 217.07080078 C-165.24312656 122.92646673 -165.24312656 122.92646673 -165.01757812 78.88330078 C-165.00911865 77.15696411 -165.00911865 77.15696411 -165.00048828 75.39575195 C-164.60613698 47.77749541 -151.60110721 25.05635661 -132.26196289 5.8918457 C-97.78677697 -27.34303163 -37.50134922 -30.05907116 0 0 Z " fill="#FAF6F4" transform="translate(619.705078125,253.36669921875)"/>
<path d="M0 0 C0 85.8 0 171.6 0 260 C-11.24944624 265.62472312 -11.24944624 265.62472312 -15.52441406 267.30493164 C-16.9712709 267.87755486 -16.9712709 267.87755486 -18.44735718 268.46174622 C-19.45988556 268.85722153 -20.47241394 269.25269684 -21.515625 269.66015625 C-22.59719879 270.08693161 -23.67877258 270.51370697 -24.79312134 270.95341492 C-28.27714094 272.32722999 -31.76355087 273.69486389 -35.25 275.0625 C-37.65791474 276.01088586 -40.06562877 276.95978145 -42.47314453 277.90917969 C-46.04678825 279.31838244 -49.62054084 280.72729883 -53.19497681 282.13449097 C-62.10128068 285.64106949 -70.993085 289.18217991 -79.875 292.75 C-91.88943845 297.570169 -103.93447523 302.30925254 -116 307 C-116 307.66 -116 308.32 -116 309 C-116.99 308.67 -117.98 308.34 -119 308 C-119.33 290.18 -119.66 272.36 -120 254 C-120.33 254 -120.66 254 -121 254 C-121 252.02 -121 250.04 -121 248 C-120.67 248 -120.34 248 -120 248 C-119.67 182 -119.34 116 -119 48 C-117.515 47.505 -117.515 47.505 -116 47 C-115.67 46.34 -115.34 45.68 -115 45 C-112.9534776 44.29691355 -110.90302368 43.60408384 -108.83886719 42.95458984 C-102.52223776 40.83057703 -96.41218443 38.1072795 -90.26757812 35.53491211 C-88.47453977 34.78567823 -86.67871371 34.04312673 -84.8828125 33.30078125 C-83.82465332 32.85903564 -82.76649414 32.41729004 -81.67626953 31.9621582 C-79 31 -79 31 -76 31 C-75.67 30.34 -75.34 29.68 -75 29 C-72.72510976 28.0364185 -70.47528506 27.17911516 -68.1484375 26.359375 C-66.67996478 25.8254872 -65.21222106 25.28959105 -63.74511719 24.75195312 C-62.58151672 24.32619995 -62.58151672 24.32619995 -61.39440918 23.8918457 C-54.91025348 21.47669192 -48.50775871 18.84526231 -42.09472656 16.24853516 C-39.58082512 15.23213965 -37.06389238 14.22349432 -34.546875 13.21484375 C-32.93991498 12.56557222 -31.33313684 11.9158503 -29.7265625 11.265625 C-28.97774811 10.96666321 -28.22893372 10.66770142 -27.45742798 10.35968018 C-23.39375649 8.7140782 -23.39375649 8.7140782 -20 6 C-18.30585573 5.43528524 -16.61104513 4.87253352 -14.9140625 4.31640625 C-11.60770417 3.22745206 -8.34388416 2.14203911 -5.125 0.8125 C-3 0 -3 0 0 0 Z " fill="#F04B39" transform="translate(396,419)"/>
<path d="M0 0 C0.88171875 0.00749268 1.7634375 0.01498535 2.671875 0.02270508 C19.70594985 0.3050291 35.14401522 6.5951026 47.6875 18.3125 C60.27723335 31.64678747 67.61055038 48.40910623 67.33203125 66.91796875 C64.20250652 105.60615124 34.10917782 140.15991884 12.0625 170.25 C11.5247998 170.98524902 10.98709961 171.72049805 10.43310547 172.47802734 C7.31597176 176.74007761 4.19241591 180.99732869 1.0625 185.25 C-3.03363853 181.50438677 -6.12678482 177.09325682 -9.375 172.625 C-9.99044678 171.78251709 -10.60589355 170.94003418 -11.23999023 170.07202148 C-12.51803277 168.32082364 -13.79446811 166.56845178 -15.06933594 164.81494141 C-16.80126914 162.43704148 -18.54344598 160.06708154 -20.2890625 157.69921875 C-68.04786694 92.65042655 -68.04786694 92.65042655 -64.9375 53.25 C-64.1545252 48.575454 -62.88695249 44.56084287 -60.9375 40.25 C-60.2259375 38.64318359 -60.2259375 38.64318359 -59.5 37.00390625 C-51.53860936 20.75577968 -38.34488622 9.44469306 -21.51171875 3.00390625 C-14.26478704 0.88151199 -7.55758554 -0.08489223 0 0 Z " fill="#F04735" transform="translate(555.9375,268.75)"/>
<path d="M0 0 C6.86344161 4.46402707 11.56724155 9.17993469 13.921875 17.25 C15.09369072 26.64357969 14.86786848 35.42327865 8.921875 43.25 C3.38210444 49.6004687 -3.43467555 53.46686038 -11.80859375 54.62890625 C-19.53477428 54.96672232 -26.19608618 53.28053808 -32.33984375 48.484375 C-37.91061705 43.25340858 -42.31867376 37.03437525 -43.078125 29.25 C-43.14128906 28.60546875 -43.20445312 27.9609375 -43.26953125 27.296875 C-43.71224425 19.12810609 -41.01690272 12.30612824 -35.953125 5.9375 C-26.63140818 -3.75787214 -12.11644831 -6.55928029 0 0 Z " fill="#FAF6F4" transform="translate(571.078125,309.75)"/>
<path d="M0 0 C0.33 0 0.66 0 1 0 C1.1311219 25.79264461 1.26154347 51.58529268 1.39115143 77.37794495 C1.45135857 89.3562944 1.51178727 101.33464266 1.57275391 113.31298828 C1.62594661 123.76407397 1.67870695 134.21516174 1.73096704 144.66625214 C1.75860384 150.19020243 1.78644427 155.71415151 1.81480408 161.23809814 C1.82571881 163.37048337 1.83662891 165.50286863 1.84753418 167.63525391 C1.85283378 168.66694702 1.85813338 169.69864014 1.86359358 170.76159668 C1.88864768 175.7019579 1.91210333 180.6423164 1.93166351 185.58270264 C1.93529766 186.49872757 1.9389318 187.4147525 1.94267607 188.35853577 C1.94970493 190.13432287 1.95667146 191.91011022 1.96357012 193.68589783 C1.98528293 198.83471018 2.02719099 203.98280126 2.08374023 209.13134766 C2.09793629 210.85838676 2.09793629 210.85838676 2.11241913 212.62031555 C2.12918185 214.6311312 2.15328313 216.64190806 2.18695831 218.6525116 C2.20038006 220.76921609 2.11241391 222.88624004 2 225 C1.01 225.99 1.01 225.99 0 227 C-1.19093993 204.64994642 -1.15752167 182.31077209 -1.12857056 159.9361496 C-1.12496792 156.78443815 -1.12337274 153.63273133 -1.12231445 150.48101807 C-1.10152753 100.31793904 -0.58577065 50.15920181 0 0 Z " fill="#F2422D" transform="translate(746,424)"/>
<path d="M0 0 C0.33 0 0.66 0 1 0 C1.17484837 10.79154596 1.34094163 21.58321039 1.5 32.375 C1.51187725 33.180513 1.5237545 33.986026 1.53599167 34.81594849 C2.00065201 66.54630615 2.12433911 98.26617922 2 130 C3.32 129.67 4.64 129.34 6 129 C5.67 129.99 5.34 130.98 5 132 C3.35 132.33 1.7 132.66 0 133 C0 89.11 0 45.22 0 0 Z " fill="#F8452F" transform="translate(278,593)"/>
<path d="M0 0 C0 0.66 0 1.32 0 2 C-5.15677721 3.98270113 -10.31631785 5.95796864 -15.47851562 7.92651367 C-17.23286867 8.59669596 -18.98646059 9.26887432 -20.73925781 9.94311523 C-23.26428119 10.91400249 -25.79198863 11.87758947 -28.3203125 12.83984375 C-29.09867462 13.14091537 -29.87703674 13.441987 -30.6789856 13.75218201 C-34.78182498 15.30513945 -38.61535646 16.46030466 -43 17 C-41.44622651 13.89245302 -38.40805392 13.37312888 -35.3125 12.1875 C-34.64130127 11.92469238 -33.97010254 11.66188477 -33.27856445 11.39111328 C-27.64073691 9.20152457 -21.94994208 7.16762427 -16.2421875 5.16796875 C-12.43785448 3.79749216 -8.70894038 2.28128053 -4.98828125 0.69921875 C-3 0 -3 0 0 0 Z " fill="#F54731" transform="translate(736,683)"/>
<path d="M0 0 C4.66048606 0.75525663 8.9481886 2.28846794 13.375 3.875 C14.10460937 4.13152344 14.83421875 4.38804687 15.5859375 4.65234375 C20.1405719 6.27086562 24.56689582 8.07517125 29 10 C30.99263591 10.68836513 32.99041337 11.36281399 35 12 C35 12.33 35 12.66 35 13 C29.85050911 13.24327663 26.20202013 12.62295542 21.4453125 10.6640625 C20.25421875 10.17679688 19.063125 9.68953125 17.8359375 9.1875 C17.22717773 8.93097656 16.61841797 8.67445313 15.99121094 8.41015625 C14.11449937 7.62058215 12.23014746 6.85204186 10.34375 6.0859375 C1.13754507 2.27509014 1.13754507 2.27509014 0 0 Z " fill="#F54731" transform="translate(493,704)"/>
<path d="M0 0 C5.05739666 0.50573967 8.50865958 1.71029704 13 4 C15.62829851 4.81333018 18.26612617 5.55023069 20.92578125 6.25390625 C23 7 23 7 24 9 C18.20468763 8.47667748 13.41935152 7.29854313 8.0625 5.0625 C7.39154297 4.79759766 6.72058594 4.53269531 6.02929688 4.25976562 C1.13212798 2.26425595 1.13212798 2.26425595 0 0 Z " fill="#F64731" transform="translate(528,718)"/>
<path d="M0 0 C1 3 1 3 0.13549805 4.80932617 C-0.31784912 5.46392822 -0.77119629 6.11853027 -1.23828125 6.79296875 C-1.72876953 7.50517578 -2.21925781 8.21738281 -2.72460938 8.95117188 C-3.24861328 9.68916016 -3.77261719 10.42714844 -4.3125 11.1875 C-4.82490234 11.93708984 -5.33730469 12.68667969 -5.86523438 13.45898438 C-8.71470282 17.54186029 -8.71470282 17.54186029 -10 19 C-10.66 19 -11.32 19 -12 19 C-11.42646647 14.82427339 -9.09424074 12.20648364 -6.5625 8.9375 C-4.29410302 5.9918609 -2.0624557 3.09368355 0 0 Z " fill="#F5472E" transform="translate(620,455)"/>
<path d="M0 0 C4.49406959 0.71213718 8.92859613 1.59771425 13.375 2.5625 C14.62023437 2.83191406 15.86546875 3.10132813 17.1484375 3.37890625 C18.08945312 3.58386719 19.03046875 3.78882813 20 4 C19.34 4.66 18.68 5.32 18 6 C12.11709939 5.69037365 6.38241626 4.46154266 1 2 C0.67 1.34 0.34 0.68 0 0 Z " fill="#F54731" transform="translate(571,770)"/>
<path d="M0 0 C-12.61955098 6.59803935 -12.61955098 6.59803935 -18 5 C-15.75564555 3.96483652 -13.50593133 2.94685023 -11.25 1.9375 C-10.29867187 1.49567383 -10.29867187 1.49567383 -9.328125 1.04492188 C-3.48702331 -1.54098252 -3.48702331 -1.54098252 0 0 Z " fill="#F5452F" transform="translate(619,729)"/>
<path d="M0 0 C0.66 0.66 1.32 1.32 2 2 C-0.07772471 2.86772029 -2.16243177 3.71873619 -4.25 4.5625 C-5.99023438 5.27599609 -5.99023438 5.27599609 -7.765625 6.00390625 C-10.86266644 6.95770524 -12.07321701 7.20983356 -15 6 C-10.15196636 3.38952035 -5.23272633 1.63958758 0 0 Z " fill="#F54730" transform="translate(304,421)"/>
<path d="M0 0 C-1.74294678 0.86846831 -3.49468663 1.71930627 -5.25 2.5625 C-6.22453125 3.03816406 -7.1990625 3.51382813 -8.203125 4.00390625 C-11.09856297 5.03510273 -12.19966161 5.11346788 -15 4 C-14.37351562 3.72285156 -13.74703125 3.44570313 -13.1015625 3.16015625 C-12.28429687 2.79792969 -11.46703125 2.43570313 -10.625 2.0625 C-9.81289063 1.70285156 -9.00078125 1.34320312 -8.1640625 0.97265625 C-3.5982659 -1.07947977 -3.5982659 -1.07947977 0 0 Z " fill="#F44730" transform="translate(635,723)"/>
<path d="M0 0 C-4.6154263 3.38464596 -9.48086654 4.08907506 -15 5 C-12.72676563 2.4061813 -10.76597542 1.31688531 -7.5 0.25 C-6.7265625 -0.01296875 -5.953125 -0.2759375 -5.15625 -0.546875 C-3 -1 -3 -1 0 0 Z " fill="#F4462F" transform="translate(692,701)"/>
<path d="M0 0 C0.33 0.99 0.66 1.98 1 3 C-0.36328125 5.15625 -0.36328125 5.15625 -2.3125 7.5 C-4.33850236 9.96572295 -6.22692978 12.34039467 -8 15 C-8.66 14.67 -9.32 14.34 -10 14 C-6.7 9.38 -3.4 4.76 0 0 Z " fill="#EB1F14" transform="translate(623,421)"/>
<path d="M0 0 C4.08718695 -0.24042276 7.17679443 0.57741188 11 2 C10.34 3.32 9.68 4.64 9 6 C8.67 5.34 8.34 4.68 8 4 C6.845 3.67 5.69 3.34 4.5 3 C3.345 2.67 2.19 2.34 1 2 C0.67 1.34 0.34 0.68 0 0 Z " fill="#F54731" transform="translate(554,728)"/>
<path d="M0 0 C0 0.66 0 1.32 0 2 C-1.6232687 2.6708712 -3.24867578 3.33657029 -4.875 4 C-6.23238281 4.556875 -6.23238281 4.556875 -7.6171875 5.125 C-10 6 -10 6 -12 6 C-11 3 -11 3 -9.2578125 2.05078125 C-8.55398438 1.80714844 -7.85015625 1.56351563 -7.125 1.3125 C-6.42632812 1.06113281 -5.72765625 0.80976562 -5.0078125 0.55078125 C-3 0 -3 0 0 0 Z " fill="#F5472F" transform="translate(366,725)"/>
<path d="M0 0 C0.66 1.32 1.32 2.64 2 4 C1.01 4.33 0.02 4.66 -1 5 C-2.69882448 7.49759982 -2.69882448 7.49759982 -4 10 C-4.66 9.67 -5.32 9.34 -6 9 C-4.02 6.03 -2.04 3.06 0 0 Z " fill="#EF2216" transform="translate(630,410)"/>
<path d="M0 0 C0 0.66 0 1.32 0 2 C-6.28571429 4.42857143 -6.28571429 4.42857143 -10 3 C-3.375 0 -3.375 0 0 0 Z " fill="#F5452E" transform="translate(336,702)"/>
<path d="M0 0 C-1 3 -1 3 -3.3125 4.25 C-6.16597407 5.04631835 -7.24802325 4.8214856 -10 4 C-8.71086513 3.32845067 -7.41859796 2.66291141 -6.125 2 C-5.40570313 1.62875 -4.68640625 1.2575 -3.9453125 0.875 C-2 0 -2 0 0 0 Z " fill="#F54730" transform="translate(397,383)"/>
<path d="M0 0 C-2.35968744 2.09749995 -3.54616994 2.96905704 -6.75 3.1875 C-7.86375 3.0946875 -7.86375 3.0946875 -9 3 C-6.07868595 -0.19953443 -4.37453972 -1.45817991 0 0 Z " fill="#F54830" transform="translate(667,455)"/>
<path d="M0 0 C0.33 0 0.66 0 1 0 C1 2.97 1 5.94 1 9 C0.67 9 0.34 9 0 9 C0 6.03 0 3.06 0 0 Z " fill="#F15240" transform="translate(275,691)"/>
<path d="M0 0 C1.98 0 3.96 0 6 0 C6 0.33 6 0.66 6 1 C4.02 1 2.04 1 0 1 C0 0.67 0 0.34 0 0 Z " fill="#E2513F" transform="translate(737,870)"/>
<path d="M0 0 C0.33 0 0.66 0 1 0 C1 1.98 1 3.96 1 6 C0.67 6 0.34 6 0 6 C0 4.02 0 2.04 0 0 Z " fill="#F05341" transform="translate(275,571)"/>
<path d="M0 0 C0.33 0 0.66 0 1 0 C1 1.98 1 3.96 1 6 C0.67 6 0.34 6 0 6 C0 4.02 0 2.04 0 0 Z " fill="#F25241" transform="translate(275,499)"/>
<path d="M0 0 C0.33 0 0.66 0 1 0 C1 1.65 1 3.3 1 5 C0.67 5 0.34 5 0 5 C0 3.35 0 1.7 0 0 Z " fill="#E45342" transform="translate(145,713)"/>
<path d="M0 0 C0.33 0 0.66 0 1 0 C1 1.65 1 3.3 1 5 C0.67 5 0.34 5 0 5 C0 3.35 0 1.7 0 0 Z " fill="#F35442" transform="translate(594,661)"/>
<path d="M0 0 C0.33 0 0.66 0 1 0 C1 1.65 1 3.3 1 5 C0.67 5 0.34 5 0 5 C0 3.35 0 1.7 0 0 Z " fill="#F1523F" transform="translate(275,651)"/>
<path d="M0 0 C0.33 0 0.66 0 1 0 C1 1.65 1 3.3 1 5 C0.67 5 0.34 5 0 5 C0 3.35 0 1.7 0 0 Z " fill="#E6503F" transform="translate(878,571)"/>
<path d="M0 0 C0.33 0 0.66 0 1 0 C1 1.65 1 3.3 1 5 C0.67 5 0.34 5 0 5 C0 3.35 0 1.7 0 0 Z " fill="#F05340" transform="translate(275,565)"/>
<path d="M0 0 C0.33 0 0.66 0 1 0 C1 1.65 1 3.3 1 5 C0.67 5 0.34 5 0 5 C0 3.35 0 1.7 0 0 Z " fill="#F15240" transform="translate(275,549)"/>
<path d="M0 0 C0.33 0 0.66 0 1 0 C1 1.65 1 3.3 1 5 C0.67 5 0.34 5 0 5 C0 3.35 0 1.7 0 0 Z " fill="#E7503F" transform="translate(878,491)"/>
<path d="M0 0 C4 1 4 1 4 1 Z " fill="#E1513F" transform="translate(727,871)"/>
<path d="M0 0 C4 1 4 1 4 1 Z " fill="#E55241" transform="translate(500,871)"/>
<path d="M0 0 C4 1 4 1 4 1 Z " fill="#E55341" transform="translate(403,871)"/>
<path d="M0 0 C4 1 4 1 4 1 Z " fill="#E45341" transform="translate(388,871)"/>
<path d="M0 0 C0.99 0.33 1.98 0.66 3 1 C2.01 1 1.02 1 0 1 C0 0.67 0 0.34 0 0 Z " fill="#E3513E" transform="translate(273,869)"/>
<path d="M0 0 C1 4 1 4 1 4 Z " fill="#E45441" transform="translate(146,730)"/>
<path d="M0 0 C1 4 1 4 1 4 Z " fill="#F55542" transform="translate(594,635)"/>
<path d="M0 0 C1 4 1 4 1 4 Z " fill="#F45643" transform="translate(594,620)"/>
<path d="M0 0 C1 4 1 4 1 4 Z " fill="#F35443" transform="translate(594,612)"/>
<path d="M0 0 C1 4 1 4 1 4 Z " fill="#F15240" transform="translate(275,581)"/>
<path d="M0 0 C1 4 1 4 1 4 Z " fill="#F1513F" transform="translate(275,512)"/>
<path d="M0 0 C1 4 1 4 1 4 Z " fill="#F15340" transform="translate(275,491)"/>
<path d="M0 0 C0.99 1.485 0.99 1.485 2 3 C1.34 3 0.68 3 0 3 C0 2.01 0 1.02 0 0 Z " fill="#F35745" transform="translate(474,433)"/>
<path d="M0 0 C4 1 4 1 4 1 Z " fill="#DF5240" transform="translate(290,153)"/>
<path d="M0 0 C3 1 3 1 3 1 Z " fill="#E55341" transform="translate(436,871)"/>
<path d="M0 0 C3 1 3 1 3 1 Z " fill="#E55342" transform="translate(372,871)"/>
<path d="M0 0 C3 1 3 1 3 1 Z " fill="#E25241" transform="translate(355,871)"/>
<path d="M0 0 C3 1 3 1 3 1 Z " fill="#E25140" transform="translate(308,871)"/>
<path d="M0 0 C3 1 3 1 3 1 Z " fill="#E3513E" transform="translate(283,870)"/>
<path d="M0 0 C3 1 3 1 3 1 Z " fill="#E4513F" transform="translate(268,868)"/>
<path d="M0 0 C3 1 3 1 3 1 Z " fill="#F25844" transform="translate(668,711)"/>
<path d="" fill="#F15241" transform="translate(0,0)"/>
<path d="" fill="#F45443" transform="translate(0,0)"/>
<path d="" fill="#F45542" transform="translate(0,0)"/>
<path d="" fill="#F35443" transform="translate(0,0)"/>
<path d="" fill="#F15241" transform="translate(0,0)"/>
<path d="" fill="#F45543" transform="translate(0,0)"/>
<path d="" fill="#F15140" transform="translate(0,0)"/>
<path d="" fill="#F15240" transform="translate(0,0)"/>
<path d="" fill="#F15240" transform="translate(0,0)"/>
<path d="" fill="#F35443" transform="translate(0,0)"/>
<path d="" fill="#F25341" transform="translate(0,0)"/>
<path d="" fill="#F1523F" transform="translate(0,0)"/>
<path d="" fill="#F35443" transform="translate(0,0)"/>
<path d="" fill="#F15442" transform="translate(0,0)"/>
<path d="M0 0 C3 1 3 1 3 1 Z " fill="#F15945" transform="translate(336,440)"/>
<path d="M0 0 C0.33 0.66 0.66 1.32 1 2 C0.34 1.67 -0.32 1.34 -1 1 C-0.67 0.67 -0.34 0.34 0 0 Z " fill="#F15543" transform="translate(309,422)"/>
<path d="M0 0 C3 1 3 1 3 1 Z " fill="#F15643" transform="translate(725,399)"/>
<path d="M0 0 C2 1 2 1 2 1 Z " fill="#E45240" transform="translate(724,871)"/>
<path d="M0 0 C2 1 2 1 2 1 Z " fill="#E35340" transform="translate(720,871)"/>
<path d="M0 0 C2 1 2 1 2 1 Z " fill="#E35241" transform="translate(716,871)"/>
<path d="M0 0 C2 1 2 1 2 1 Z " fill="#E35140" transform="translate(703,871)"/>
<path d="M0 0 C2 1 2 1 2 1 Z " fill="#E3513E" transform="translate(696,871)"/>
<path d="M0 0 C2 1 2 1 2 1 Z " fill="#E4533F" transform="translate(692,871)"/>
<path d="M0 0 C2 1 2 1 2 1 Z " fill="#E55241" transform="translate(676,871)"/>
<path d="M0 0 C2 1 2 1 2 1 Z " fill="#E55240" transform="translate(648,871)"/>
<path d="M0 0 C2 1 2 1 2 1 Z " fill="#E25240" transform="translate(616,871)"/>
<path d="M0 0 C2 1 2 1 2 1 Z " fill="#E55342" transform="translate(605,871)"/>
<path d="M0 0 C2 1 2 1 2 1 Z " fill="#E3533F" transform="translate(568,871)"/>
<path d="M0 0 C2 1 2 1 2 1 Z " fill="#E55341" transform="translate(533,871)"/>
<path d="M0 0 C2 1 2 1 2 1 Z " fill="#E35242" transform="translate(496,871)"/>
<path d="M0 0 C2 1 2 1 2 1 Z " fill="#E65342" transform="translate(493,871)"/>
<path d="M0 0 C2 1 2 1 2 1 Z " fill="#E25340" transform="translate(472,871)"/>
<path d="M0 0 C2 1 2 1 2 1 Z " fill="#E45342" transform="translate(468,871)"/>
<path d="M0 0 C2 1 2 1 2 1 Z " fill="#E35341" transform="translate(416,871)"/>
<path d="M0 0 C2 1 2 1 2 1 Z " fill="#E45341" transform="translate(408,871)"/>
<path d="M0 0 C2 1 2 1 2 1 Z " fill="#E45342" transform="translate(397,871)"/>
<path d="M0 0 C2 1 2 1 2 1 Z " fill="#E35240" transform="translate(384,871)"/>
<path d="M0 0 C2 1 2 1 2 1 Z " fill="#E4543F" transform="translate(344,871)"/>
<path d="M0 0 C2 1 2 1 2 1 Z " fill="#E45140" transform="translate(341,871)"/>
<path d="M0 0 C2 1 2 1 2 1 Z " fill="#E3523F" transform="translate(292,871)"/>
<path d="M0 0 C2 1 2 1 2 1 Z " fill="#E35341" transform="translate(745,869)"/>
<path d="M0 0 C2 1 2 1 2 1 Z " fill="#E2523F" transform="translate(264,867)"/>
<path d="M0 0 C2 1 2 1 2 1 Z " fill="#E1523F" transform="translate(774,863)"/>
<path d="M0 0 C2 1 2 1 2 1 Z " fill="#F05644" transform="translate(573,768)"/>
<path d="M0 0 C2 1 2 1 2 1 Z " fill="#F35643" transform="translate(656,745)"/>
<path d="M0 0 C2 1 2 1 2 1 Z " fill="#EF5641" transform="translate(606,735)"/>
<path d="M0 0 C2 1 2 1 2 1 Z " fill="#F15644" transform="translate(627,727)"/>
<path d="M0 0 C2 1 2 1 2 1 Z " fill="#F05644" transform="translate(544,727)"/>
<path d="M0 0 C2 1 2 1 2 1 Z " fill="#F35544" transform="translate(512,714)"/>
<path d="" fill="#EF513F" transform="translate(0,0)"/>
<path d="M0 0 C2 1 2 1 2 1 Z " fill="#ED5744" transform="translate(430,712)"/>
<path d="M0 0 C2 1 2 1 2 1 Z " fill="#F15641" transform="translate(318,711)"/>
<path d="" fill="#E65341" transform="translate(0,0)"/>
<path d="" fill="#F55643" transform="translate(0,0)"/>
<path d="M0 0 C2 1 2 1 2 1 Z " fill="#F45443" transform="translate(498,709)"/>
<path d="" fill="#F25241" transform="translate(0,0)"/>
<path d="M0 0 C2 1 2 1 2 1 Z " fill="#F05543" transform="translate(483,703)"/>
<path d="" fill="#F35242" transform="translate(0,0)"/>
<path d="" fill="#F25240" transform="translate(0,0)"/>
<path d="" fill="#E3503E" transform="translate(0,0)"/>
<path d="M0 0 C2 1 2 1 2 1 Z " fill="#F25745" transform="translate(712,694)"/>
<path d="" fill="#F1513F" transform="translate(0,0)"/>
<path d="" fill="#E3503E" transform="translate(0,0)"/>
<path d="" fill="#F15341" transform="translate(0,0)"/>
<path d="" fill="#F35542" transform="translate(0,0)"/>
<path d="" fill="#E54F3F" transform="translate(0,0)"/>
<path d="" fill="#E4503F" transform="translate(0,0)"/>
<path d="" fill="#F15340" transform="translate(0,0)"/>
<path d="" fill="#F45642" transform="translate(0,0)"/>
<path d="M0 0 C2 1 2 1 2 1 Z " fill="#F45341" transform="translate(397,623)"/>
<path d="" fill="#E64F3D" transform="translate(0,0)"/>
<path d="" fill="#E5503F" transform="translate(0,0)"/>
<path d="" fill="#F35543" transform="translate(0,0)"/>
<path d="" fill="#F35442" transform="translate(0,0)"/>
<path d="" fill="#F35543" transform="translate(0,0)"/>
<path d="" fill="#F55544" transform="translate(0,0)"/>
<path d="M0 0 C2 1 2 1 2 1 Z " fill="#F55646" transform="translate(592,539)"/>
<path d="" fill="#E7503F" transform="translate(0,0)"/>
<path d="" fill="#F35442" transform="translate(0,0)"/>
<path d="" fill="#F05241" transform="translate(0,0)"/>
<path d="M0 0 C2 1 2 1 2 1 Z " fill="#F15745" transform="translate(633,464)"/>
<path d="" fill="#E6513E" transform="translate(0,0)"/>
<path d="M0 0 C2 1 2 1 2 1 Z " fill="#F25642" transform="translate(286,431)"/>
<path d="M0 0 C2 1 2 1 2 1 Z " fill="#F55640" transform="translate(662,423)"/>
<path d="" fill="#F45845" transform="translate(0,0)"/>
<path d="" fill="#F35745" transform="translate(0,0)"/>
<path d="M0 0 C2 1 2 1 2 1 Z " fill="#F35643" transform="translate(684,415)"/>
<path d="" fill="#F45846" transform="translate(0,0)"/>
<path d="" fill="#F45845" transform="translate(0,0)"/>
<path d="M0 0 C2 1 2 1 2 1 Z " fill="#F45645" transform="translate(450,397)"/>
<path d="" fill="#E15241" transform="translate(0,0)"/>
<path d="" fill="#E45545" transform="translate(0,0)"/>
<path d="M0 0 C2 1 2 1 2 1 Z " fill="#E05341" transform="translate(774,161)"/>
<path d="M0 0 C2 1 2 1 2 1 Z " fill="#DF503F" transform="translate(278,154)"/>
<path d="" fill="#812F22" transform="translate(0,0)"/>
<path d="" fill="#E1513E" transform="translate(0,0)"/>
<path d="" fill="#E4533E" transform="translate(0,0)"/>
<path d="" fill="#E55140" transform="translate(0,0)"/>
<path d="" fill="#E65141" transform="translate(0,0)"/>
<path d="" fill="#E75342" transform="translate(0,0)"/>
<path d="" fill="#E45140" transform="translate(0,0)"/>
<path d="" fill="#E65540" transform="translate(0,0)"/>
<path d="" fill="#E45341" transform="translate(0,0)"/>
<path d="" fill="#E85441" transform="translate(0,0)"/>
<path d="" fill="#E65240" transform="translate(0,0)"/>
<path d="" fill="#E6513E" transform="translate(0,0)"/>
<path d="" fill="#E75341" transform="translate(0,0)"/>
<path d="" fill="#E35441" transform="translate(0,0)"/>
<path d="" fill="#E25342" transform="translate(0,0)"/>
<path d="" fill="#E55241" transform="translate(0,0)"/>
<path d="" fill="#E25340" transform="translate(0,0)"/>
<path d="" fill="#E25340" transform="translate(0,0)"/>
<path d="" fill="#E45443" transform="translate(0,0)"/>
<path d="" fill="#E45241" transform="translate(0,0)"/>
<path d="" fill="#E75241" transform="translate(0,0)"/>
<path d="" fill="#E25040" transform="translate(0,0)"/>
<path d="" fill="#E35341" transform="translate(0,0)"/>
<path d="" fill="#E35441" transform="translate(0,0)"/>
<path d="" fill="#E45343" transform="translate(0,0)"/>
<path d="" fill="#E55342" transform="translate(0,0)"/>
<path d="" fill="#E35341" transform="translate(0,0)"/>
<path d="" fill="#E25240" transform="translate(0,0)"/>
<path d="" fill="#E35342" transform="translate(0,0)"/>
<path d="" fill="#E2533F" transform="translate(0,0)"/>
<path d="" fill="#E35240" transform="translate(0,0)"/>
<path d="" fill="#E0513D" transform="translate(0,0)"/>
<path d="" fill="#E35340" transform="translate(0,0)"/>
<path d="" fill="#E65340" transform="translate(0,0)"/>
<path d="" fill="#E4513E" transform="translate(0,0)"/>
<path d="" fill="#E45141" transform="translate(0,0)"/>
<path d="" fill="#E35340" transform="translate(0,0)"/>
<path d="" fill="#E15040" transform="translate(0,0)"/>
<path d="" fill="#E55240" transform="translate(0,0)"/>
<path d="" fill="#E65442" transform="translate(0,0)"/>
<path d="" fill="#E5523F" transform="translate(0,0)"/>
<path d="" fill="#E15342" transform="translate(0,0)"/>
<path d="" fill="#E55343" transform="translate(0,0)"/>
<path d="" fill="#E35441" transform="translate(0,0)"/>
<path d="" fill="#DC4D3E" transform="translate(0,0)"/>
<path d="" fill="#E1513F" transform="translate(0,0)"/>
<path d="" fill="#E35241" transform="translate(0,0)"/>
<path d="" fill="#E14F3E" transform="translate(0,0)"/>
<path d="" fill="#E2503F" transform="translate(0,0)"/>
<path d="" fill="#E35240" transform="translate(0,0)"/>
<path d="" fill="#E1503F" transform="translate(0,0)"/>
<path d="" fill="#E35341" transform="translate(0,0)"/>
<path d="" fill="#F25341" transform="translate(0,0)"/>
<path d="" fill="#F15643" transform="translate(0,0)"/>
<path d="" fill="#E35240" transform="translate(0,0)"/>
<path d="" fill="#F15744" transform="translate(0,0)"/>
<path d="" fill="#F15645" transform="translate(0,0)"/>
<path d="" fill="#F05543" transform="translate(0,0)"/>
<path d="" fill="#E55240" transform="translate(0,0)"/>
<path d="" fill="#E15241" transform="translate(0,0)"/>
<path d="" fill="#F15645" transform="translate(0,0)"/>
<path d="" fill="#EE5442" transform="translate(0,0)"/>
<path d="" fill="#F05543" transform="translate(0,0)"/>
<path d="" fill="#F45543" transform="translate(0,0)"/>
<path d="" fill="#F45745" transform="translate(0,0)"/>
<path d="" fill="#F15745" transform="translate(0,0)"/>
<path d="" fill="#F25545" transform="translate(0,0)"/>
<path d="" fill="#F25542" transform="translate(0,0)"/>
<path d="" fill="#F45945" transform="translate(0,0)"/>
<path d="" fill="#E25242" transform="translate(0,0)"/>
<path d="" fill="#F45643" transform="translate(0,0)"/>
<path d="" fill="#E45242" transform="translate(0,0)"/>
<path d="" fill="#F25744" transform="translate(0,0)"/>
<path d="" fill="#F05741" transform="translate(0,0)"/>
<path d="" fill="#F15845" transform="translate(0,0)"/>
<path d="" fill="#F15644" transform="translate(0,0)"/>
<path d="" fill="#E45543" transform="translate(0,0)"/>
<path d="" fill="#F45643" transform="translate(0,0)"/>
<path d="" fill="#F35646" transform="translate(0,0)"/>
<path d="" fill="#F45443" transform="translate(0,0)"/>
<path d="" fill="#EF5542" transform="translate(0,0)"/>
<path d="" fill="#EF5745" transform="translate(0,0)"/>
<path d="" fill="#F45543" transform="translate(0,0)"/>
<path d="" fill="#E55442" transform="translate(0,0)"/>
<path d="" fill="#F35442" transform="translate(0,0)"/>
<path d="" fill="#F45442" transform="translate(0,0)"/>
<path d="" fill="#F35644" transform="translate(0,0)"/>
<path d="" fill="#F35542" transform="translate(0,0)"/>
<path d="" fill="#F25542" transform="translate(0,0)"/>
<path d="" fill="#F15646" transform="translate(0,0)"/>
<path d="" fill="#F45445" transform="translate(0,0)"/>
<path d="" fill="#F15746" transform="translate(0,0)"/>
<path d="" fill="#F45645" transform="translate(0,0)"/>
<path d="" fill="#F35645" transform="translate(0,0)"/>
<path d="" fill="#F15241" transform="translate(0,0)"/>
<path d="" fill="#F25743" transform="translate(0,0)"/>
<path d="" fill="#F15746" transform="translate(0,0)"/>
<path d="" fill="#E85543" transform="translate(0,0)"/>
<path d="" fill="#F25844" transform="translate(0,0)"/>
<path d="" fill="#F35643" transform="translate(0,0)"/>
<path d="" fill="#F05443" transform="translate(0,0)"/>
<path d="" fill="#F05041" transform="translate(0,0)"/>
<path d="" fill="#F15B45" transform="translate(0,0)"/>
<path d="" fill="#F45840" transform="translate(0,0)"/>
<path d="" fill="#F35744" transform="translate(0,0)"/>
<path d="" fill="#E35340" transform="translate(0,0)"/>
<path d="" fill="#F25644" transform="translate(0,0)"/>
<path d="" fill="#F25141" transform="translate(0,0)"/>
<path d="" fill="#F15743" transform="translate(0,0)"/>
<path d="" fill="#F15341" transform="translate(0,0)"/>
<path d="" fill="#F15544" transform="translate(0,0)"/>
<path d="" fill="#F05443" transform="translate(0,0)"/>
<path d="" fill="#F45844" transform="translate(0,0)"/>
<path d="" fill="#E55040" transform="translate(0,0)"/>
<path d="" fill="#F15644" transform="translate(0,0)"/>
<path d="" fill="#F05441" transform="translate(0,0)"/>
<path d="" fill="#F55542" transform="translate(0,0)"/>
<path d="" fill="#E75243" transform="translate(0,0)"/>
<path d="" fill="#F35643" transform="translate(0,0)"/>
<path d="" fill="#F45744" transform="translate(0,0)"/>
<path d="" fill="#E65242" transform="translate(0,0)"/>
<path d="" fill="#E5513F" transform="translate(0,0)"/>
<path d="" fill="#F05746" transform="translate(0,0)"/>
<path d="" fill="#F35744" transform="translate(0,0)"/>
<path d="" fill="#F35644" transform="translate(0,0)"/>
<path d="" fill="#F45645" transform="translate(0,0)"/>
<path d="" fill="#F25542" transform="translate(0,0)"/>
<path d="" fill="#E5513F" transform="translate(0,0)"/>
<path d="" fill="#F55341" transform="translate(0,0)"/>
<path d="" fill="#F25741" transform="translate(0,0)"/>
<path d="" fill="#F25442" transform="translate(0,0)"/>
<path d="" fill="#F55B44" transform="translate(0,0)"/>
<path d="" fill="#F25544" transform="translate(0,0)"/>
<path d="" fill="#F55544" transform="translate(0,0)"/>
<path d="" fill="#F45845" transform="translate(0,0)"/>
<path d="" fill="#F55544" transform="translate(0,0)"/>
<path d="" fill="#F45543" transform="translate(0,0)"/>
<path d="" fill="#F45642" transform="translate(0,0)"/>
<path d="" fill="#F25342" transform="translate(0,0)"/>
<path d="" fill="#F45642" transform="translate(0,0)"/>
<path d="" fill="#F05341" transform="translate(0,0)"/>
<path d="" fill="#E4503E" transform="translate(0,0)"/>
<path d="" fill="#E6513E" transform="translate(0,0)"/>
<path d="" fill="#F35442" transform="translate(0,0)"/>
<path d="" fill="#E55240" transform="translate(0,0)"/>
<path d="" fill="#F25441" transform="translate(0,0)"/>
<path d="" fill="#F65441" transform="translate(0,0)"/>
<path d="" fill="#F05142" transform="translate(0,0)"/>
<path d="" fill="#E4503D" transform="translate(0,0)"/>
<path d="" fill="#F05440" transform="translate(0,0)"/>
<path d="" fill="#F45443" transform="translate(0,0)"/>
<path d="" fill="#F25140" transform="translate(0,0)"/>
<path d="" fill="#F35442" transform="translate(0,0)"/>
<path d="" fill="#F35542" transform="translate(0,0)"/>
<path d="" fill="#F35341" transform="translate(0,0)"/>
<path d="" fill="#F55543" transform="translate(0,0)"/>
<path d="" fill="#F25443" transform="translate(0,0)"/>
<path d="" fill="#E54E3E" transform="translate(0,0)"/>
<path d="" fill="#F45443" transform="translate(0,0)"/>
<path d="" fill="#F45743" transform="translate(0,0)"/>
<path d="" fill="#F35440" transform="translate(0,0)"/>
<path d="" fill="#E4513F" transform="translate(0,0)"/>
<path d="" fill="#F25540" transform="translate(0,0)"/>
<path d="" fill="#F35143" transform="translate(0,0)"/>
<path d="" fill="#F45444" transform="translate(0,0)"/>
<path d="" fill="#F15340" transform="translate(0,0)"/>
<path d="" fill="#F45443" transform="translate(0,0)"/>
<path d="" fill="#F25443" transform="translate(0,0)"/>
<path d="" fill="#E64F3D" transform="translate(0,0)"/>
<path d="" fill="#F15342" transform="translate(0,0)"/>
<path d="" fill="#F25341" transform="translate(0,0)"/>
<path d="" fill="#E6503D" transform="translate(0,0)"/>
<path d="" fill="#E6503E" transform="translate(0,0)"/>
<path d="" fill="#F15341" transform="translate(0,0)"/>
<path d="" fill="#E54F3E" transform="translate(0,0)"/>
<path d="" fill="#F25442" transform="translate(0,0)"/>
<path d="" fill="#F25340" transform="translate(0,0)"/>
<path d="" fill="#F25341" transform="translate(0,0)"/>
<path d="" fill="#F45643" transform="translate(0,0)"/>
<path d="" fill="#E6523E" transform="translate(0,0)"/>
<path d="" fill="#F35442" transform="translate(0,0)"/>
<path d="" fill="#E55340" transform="translate(0,0)"/>
<path d="" fill="#F25441" transform="translate(0,0)"/>
<path d="" fill="#F35442" transform="translate(0,0)"/>
<path d="" fill="#F35643" transform="translate(0,0)"/>
<path d="" fill="#F75744" transform="translate(0,0)"/>
<path d="" fill="#F45543" transform="translate(0,0)"/>
<path d="" fill="#E6513F" transform="translate(0,0)"/>
<path d="" fill="#F25642" transform="translate(0,0)"/>
<path d="" fill="#F35341" transform="translate(0,0)"/>
<path d="" fill="#F05341" transform="translate(0,0)"/>
<path d="" fill="#E74F3F" transform="translate(0,0)"/>
<path d="" fill="#F35340" transform="translate(0,0)"/>
<path d="" fill="#F25442" transform="translate(0,0)"/>
<path d="" fill="#F25241" transform="translate(0,0)"/>
<path d="" fill="#E6513F" transform="translate(0,0)"/>
<path d="" fill="#F45541" transform="translate(0,0)"/>
<path d="" fill="#F65644" transform="translate(0,0)"/>
<path d="" fill="#F25442" transform="translate(0,0)"/>
<path d="" fill="#F55645" transform="translate(0,0)"/>
<path d="" fill="#E6503E" transform="translate(0,0)"/>
<path d="" fill="#F65646" transform="translate(0,0)"/>
<path d="" fill="#F35441" transform="translate(0,0)"/>
<path d="" fill="#F45544" transform="translate(0,0)"/>
<path d="" fill="#F35341" transform="translate(0,0)"/>
<path d="" fill="#E7503F" transform="translate(0,0)"/>
<path d="" fill="#F25442" transform="translate(0,0)"/>
<path d="" fill="#E8503E" transform="translate(0,0)"/>
<path d="" fill="#F45847" transform="translate(0,0)"/>
<path d="" fill="#F45544" transform="translate(0,0)"/>
<path d="" fill="#F55442" transform="translate(0,0)"/>
<path d="" fill="#E5513F" transform="translate(0,0)"/>
<path d="" fill="#E5523E" transform="translate(0,0)"/>
<path d="" fill="#F25242" transform="translate(0,0)"/>
<path d="" fill="#F15442" transform="translate(0,0)"/>
<path d="" fill="#F15241" transform="translate(0,0)"/>
<path d="" fill="#E7523F" transform="translate(0,0)"/>
<path d="" fill="#F05540" transform="translate(0,0)"/>
<path d="" fill="#E4503F" transform="translate(0,0)"/>
<path d="" fill="#F35441" transform="translate(0,0)"/>
<path d="" fill="#F55746" transform="translate(0,0)"/>
<path d="" fill="#E5513C" transform="translate(0,0)"/>
<path d="" fill="#F35846" transform="translate(0,0)"/>
<path d="" fill="#F15642" transform="translate(0,0)"/>
<path d="" fill="#F45746" transform="translate(0,0)"/>
<path d="" fill="#E5523D" transform="translate(0,0)"/>
<path d="" fill="#F35444" transform="translate(0,0)"/>
<path d="" fill="#F05241" transform="translate(0,0)"/>
<path d="" fill="#F35442" transform="translate(0,0)"/>
<path d="" fill="#F35542" transform="translate(0,0)"/>
<path d="" fill="#E8503F" transform="translate(0,0)"/>
<path d="" fill="#F2543F" transform="translate(0,0)"/>
<path d="" fill="#E8523E" transform="translate(0,0)"/>
<path d="" fill="#F35542" transform="translate(0,0)"/>
<path d="" fill="#E75040" transform="translate(0,0)"/>
<path d="" fill="#F35241" transform="translate(0,0)"/>
<path d="" fill="#E75140" transform="translate(0,0)"/>
<path d="" fill="#F15441" transform="translate(0,0)"/>
<path d="" fill="#F45946" transform="translate(0,0)"/>
<path d="" fill="#E9503F" transform="translate(0,0)"/>
<path d="" fill="#F25641" transform="translate(0,0)"/>
<path d="" fill="#E7513F" transform="translate(0,0)"/>
<path d="" fill="#E64F3E" transform="translate(0,0)"/>
<path d="" fill="#F45542" transform="translate(0,0)"/>
<path d="" fill="#F15743" transform="translate(0,0)"/>
<path d="" fill="#F25944" transform="translate(0,0)"/>
<path d="" fill="#E7523F" transform="translate(0,0)"/>
<path d="" fill="#F15743" transform="translate(0,0)"/>
<path d="" fill="#F25443" transform="translate(0,0)"/>
<path d="" fill="#E8503E" transform="translate(0,0)"/>
<path d="" fill="#F45341" transform="translate(0,0)"/>
<path d="" fill="#F45644" transform="translate(0,0)"/>
<path d="" fill="#F35644" transform="translate(0,0)"/>
<path d="" fill="#F45342" transform="translate(0,0)"/>
<path d="" fill="#E7513E" transform="translate(0,0)"/>
<path d="" fill="#F35442" transform="translate(0,0)"/>
<path d="" fill="#F15642" transform="translate(0,0)"/>
<path d="" fill="#F45544" transform="translate(0,0)"/>
<path d="" fill="#F35643" transform="translate(0,0)"/>
<path d="" fill="#F25644" transform="translate(0,0)"/>
<path d="" fill="#F15A44" transform="translate(0,0)"/>
<path d="" fill="#F15744" transform="translate(0,0)"/>
<path d="" fill="#F25543" transform="translate(0,0)"/>
<path d="" fill="#F25842" transform="translate(0,0)"/>
<path d="" fill="#E6523D" transform="translate(0,0)"/>
<path d="" fill="#F45645" transform="translate(0,0)"/>
<path d="" fill="#E7513E" transform="translate(0,0)"/>
<path d="" fill="#F15847" transform="translate(0,0)"/>
<path d="" fill="#F15542" transform="translate(0,0)"/>
<path d="" fill="#EF5340" transform="translate(0,0)"/>
<path d="" fill="#F25341" transform="translate(0,0)"/>
<path d="" fill="#E6503D" transform="translate(0,0)"/>
<path d="" fill="#F15644" transform="translate(0,0)"/>
<path d="" fill="#EE5846" transform="translate(0,0)"/>
<path d="" fill="#EE5743" transform="translate(0,0)"/>
<path d="" fill="#F25741" transform="translate(0,0)"/>
<path d="" fill="#E5503F" transform="translate(0,0)"/>
<path d="" fill="#F25741" transform="translate(0,0)"/>
<path d="" fill="#F45341" transform="translate(0,0)"/>
<path d="" fill="#F25543" transform="translate(0,0)"/>
<path d="" fill="#E6513F" transform="translate(0,0)"/>
<path d="" fill="#F45746" transform="translate(0,0)"/>
<path d="" fill="#F35443" transform="translate(0,0)"/>
<path d="" fill="#F15544" transform="translate(0,0)"/>
<path d="" fill="#F15542" transform="translate(0,0)"/>
<path d="" fill="#E54F3F" transform="translate(0,0)"/>
<path d="" fill="#F55743" transform="translate(0,0)"/>
<path d="" fill="#F45746" transform="translate(0,0)"/>
<path d="" fill="#F15543" transform="translate(0,0)"/>
<path d="" fill="#F45546" transform="translate(0,0)"/>
<path d="" fill="#F35443" transform="translate(0,0)"/>
<path d="" fill="#E64F3D" transform="translate(0,0)"/>
<path d="" fill="#F35544" transform="translate(0,0)"/>
<path d="" fill="#F15545" transform="translate(0,0)"/>
<path d="" fill="#E6503E" transform="translate(0,0)"/>
<path d="" fill="#F45845" transform="translate(0,0)"/>
<path d="" fill="#F35342" transform="translate(0,0)"/>
<path d="" fill="#E6513F" transform="translate(0,0)"/>
<path d="" fill="#F25542" transform="translate(0,0)"/>
<path d="" fill="#E4513E" transform="translate(0,0)"/>
<path d="" fill="#E5513E" transform="translate(0,0)"/>
<path d="" fill="#E3503E" transform="translate(0,0)"/>
<path d="" fill="#E65140" transform="translate(0,0)"/>
<path d="" fill="#E45141" transform="translate(0,0)"/>
<path d="" fill="#E4523F" transform="translate(0,0)"/>
<path d="" fill="#E35240" transform="translate(0,0)"/>
<path d="" fill="#E3503F" transform="translate(0,0)"/>
<path d="" fill="#DF523F" transform="translate(0,0)"/>
<path d="" fill="#E05141" transform="translate(0,0)"/>
<path d="" fill="#E05141" transform="translate(0,0)"/>
<path d="" fill="#DE503F" transform="translate(0,0)"/>
<path d="" fill="#E15140" transform="translate(0,0)"/>
<path d="" fill="#E2503E" transform="translate(0,0)"/>
<path d="" fill="#DE5241" transform="translate(0,0)"/>
<path d="" fill="#E0503D" transform="translate(0,0)"/>
<path d="" fill="#DC503F" transform="translate(0,0)"/>
<path d="" fill="#DE5141" transform="translate(0,0)"/>
<path d="" fill="#DE5440" transform="translate(0,0)"/>
<path d="" fill="#DE5040" transform="translate(0,0)"/>
<path d="" fill="#E15240" transform="translate(0,0)"/>
<path d="" fill="#E05342" transform="translate(0,0)"/>
<path d="" fill="#DF5140" transform="translate(0,0)"/>
<path d="" fill="#DF5543" transform="translate(0,0)"/>
<path d="" fill="#E1503F" transform="translate(0,0)"/>
<path d="" fill="#E0513F" transform="translate(0,0)"/>
<path d="" fill="#E05341" transform="translate(0,0)"/>
<path d="" fill="#E0513F" transform="translate(0,0)"/>
<path d="" fill="#E0523F" transform="translate(0,0)"/>
<path d="" fill="#E1513E" transform="translate(0,0)"/>
<path d="" fill="#E2523F" transform="translate(0,0)"/>
<path d="" fill="#E0513F" transform="translate(0,0)"/>
<path d="" fill="#E1533F" transform="translate(0,0)"/>
<path d="" fill="#E35341" transform="translate(0,0)"/>
<path d="" fill="#E05241" transform="translate(0,0)"/>
<path d="" fill="#E05240" transform="translate(0,0)"/>
<path d="" fill="#DE533F" transform="translate(0,0)"/>
<path d="" fill="#DF5240" transform="translate(0,0)"/>
<path d="" fill="#DF543F" transform="translate(0,0)"/>
</svg>
